HIERARCHY
ROOT root
{
	OFFSET	0	13.1	24.9
	CHANNELS 6  Xposition Yposition Zposition Xrotation Yrotation Zrotation
	JOINT spine_1
	{
		OFFSET	0	9.99999	0
		CHANNELS 3  Xrotation Yrotation Zrotation
		JOINT spine_2
		{
			OFFSET	0	112	-10
			CHANNELS 3  Xrotation Yrotation Zrotation
			JOINT spine_3
			{
				OFFSET	0	206.5	19.3
				CHANNELS 3  Xrotation Yrotation Zrotation
				JOINT spine_4
				{
					OFFSET	0	110.4	14.6
					CHANNELS 3  Xrotation Yrotation Zrotation
					JOINT neck_1
					{
						OFFSET	0	71.8	-50.3
						CHANNELS 3  Xrotation Yrotation Zrotation
						JOINT neck_2
						{
							OFFSET	0	86.2	-25.8
							CHANNELS 3  Xrotation Yrotation Zrotation
							JOINT head_ee
							{
								OFFSET	0	179.8	-8.7
								CHANNELS 3  Xrotation Yrotation Zrotation
								End Site
								{
									OFFSET	1	0	0
								}
							}
						}
					}
					JOINT left_clavicle
					{
						OFFSET	-43.2	22.4	-70.8
						CHANNELS 3  Xrotation Yrotation Zrotation
						JOINT left_shoulder
						{
							OFFSET	-93.9	-5.79999	48.7
							CHANNELS 3  Xrotation Yrotation Zrotation
							JOINT left_elbow
							{
								OFFSET	-291.4	-30.8	15.2
								CHANNELS 3  Xrotation Yrotation Zrotation
								JOINT left_lowarm_twist
								{
									OFFSET	-110.7	-3.89999	13.6
									CHANNELS 3  Xrotation Yrotation Zrotation
									JOINT left_hand
									{
										OFFSET	-110.7	-3.89999	13.6
										CHANNELS 3  Xrotation Yrotation Zrotation
										JOINT left_ee
										{
											OFFSET	-80.8	-5.10001	12.1
											CHANNELS 3  Xrotation Yrotation Zrotation
											End Site
											{
												OFFSET	1	0	0
											}
										}
									}
								}
							}
						}
					}
					JOINT right_clavicle
					{
						OFFSET	43.2	22.4	-70.8
						CHANNELS 3  Xrotation Yrotation Zrotation
						JOINT right_shoulder
						{
							OFFSET	93.9	-5.79999	48.7
							CHANNELS 3  Xrotation Yrotation Zrotation
							JOINT right_elbow
							{
								OFFSET	291.4	-30.8	15.2
								CHANNELS 3  Xrotation Yrotation Zrotation
								JOINT right_lowarm_twist
								{
									OFFSET	110.7	-3.89999	13.6
									CHANNELS 3  Xrotation Yrotation Zrotation
									JOINT right_hand
									{
										OFFSET	110.7	-3.89999	13.6
										CHANNELS 3  Xrotation Yrotation Zrotation
										JOINT right_ee
										{
											OFFSET	80.8	-5.10001	12.1
											CHANNELS 3  Xrotation Yrotation Zrotation
											End Site
											{
												OFFSET	1	0	0
											}
										}
									}
								}
							}
						}
					}
				}
			}
		}
	}
	JOINT left_hip
	{
		OFFSET	-82.8	-127.5	0.300001
		CHANNELS 3  Xrotation Yrotation Zrotation
		JOINT left_knee
		{
			OFFSET	-28.2	-396.7	2.2
			CHANNELS 3  Xrotation Yrotation Zrotation
			JOINT left_ankle
			{
				OFFSET	-11.7	-411.3	35.4
				CHANNELS 3  Xrotation Yrotation Zrotation
				JOINT left_toes
				{
					OFFSET	0	-60	-88.6
					CHANNELS 3  Xrotation Yrotation Zrotation
					JOINT left_foot_ee
					{
						OFFSET	-22.5	-16.5	-42.2
						CHANNELS 3  Xrotation Yrotation Zrotation
						End Site
						{
							OFFSET	1	0	0
						}
					}
				}
			}
		}
	}
	JOINT right_hip
	{
		OFFSET	82.8	-127.5	0.300001
		CHANNELS 3  Xrotation Yrotation Zrotation
		JOINT right_knee
		{
			OFFSET	28.2	-396.7	2.2
			CHANNELS 3  Xrotation Yrotation Zrotation
			JOINT right_ankle
			{
				OFFSET	11.7	-411.3	35.4
				CHANNELS 3  Xrotation Yrotation Zrotation
				JOINT right_toes
				{
					OFFSET	0	-60	-88.6
					CHANNELS 3  Xrotation Yrotation Zrotation
					JOINT right_foot_ee
					{
						OFFSET	22.5	-16.5	-42.2
						CHANNELS 3  Xrotation Yrotation Zrotation
						End Site
						{
							OFFSET	1	0	0
						}
					}
				}
			}
		}
	}
}
MOTION
Frames: 9
Frame Time: 0.02
1363.82 726.379 -557.828 179.505 -82.5618 -179.297 -1.29215 -0.199633 -0.394673 -1.29208 -0.174114 -0.406576 -1.29074 -0.0749758 -0.435888 -1.29098 -0.142875 -0.418577 1.1931 10.8064 1.60935 1.44758 17.781 2.7078 -0.0 0.0 -0.0 3.10462 10.3863 6.55853 11.0744 -31.013 58.8279 3.71569 -61.4691 2.20974 -4.96713 -0.201272 0.601996 -1.17816 -4.97398 -10.0992 -0.0 0.0 -0.0 5.07365 9.62841 -9.36276 -24.6046 24.7098 -61.627 0.877145 23.4853 -0.182332 -3.25084 0.125823 -0.395959 0.773144 -24.3693 -14.2039 0.0 0.0 0.0 -9.42934 26.1432 -0.941384 -11.6271 0.301445 1.75585 20.8999 -3.73076 -2.89241 4.86658 -0.0 -0.0 -0.0 0.0 -0.0 30.1636 22.9059 -7.44 2.31749 0.102348 0.340858 -20.1799 -11.8738 -3.03856 -28.4372 0.0 0.0 0.0 0.0 0.0 
1385.53 724.475 -549.556 -179.306 -83.7565 -178.68 -1.21191 -0.134827 -0.333285 -1.21186 -0.113346 -0.341189 -1.21111 -0.0315432 -0.358137 -1.21128 -0.0877082 -0.348661 2.3679 10.5624 1.11092 2.65272 17.5838 2.01069 -0.0 0.0 -0.0 3.07858 10.7935 6.53218 9.49015 -30.5653 58.9559 3.99374 -63.167 2.456 -5.34698 -0.218803 0.647289 -1.16627 -5.46185 -10.2326 -0.0 0.0 -0.0 4.99108 8.944 -9.23156 -24.477 24.8383 -61.9157 0.896022 23.9344 -0.189923 -2.68896 0.102471 -0.328034 0.917804 -24.1442 -14.9881 0.0 0.0 0.0 -9.86317 26.1097 -1.28536 -11.8029 0.303251 1.78276 21.9089 -4.39574 -3.02336 4.93224 -0.0 -0.0 -0.0 0.0 -0.0 29.2876 23.4516 -6.88865 0.783193 0.0330417 0.115642 -20.116 -9.99866 -3.02501 -28.6269 0.0 0.0 0.0 0.0 0.0 
1409.93 722.71 -542.814 175.054 -84.607 174.868 -1.29208 -0.0906975 -0.282008 -1.29204 -0.0725688 -0.287208 -1.29163 -0.00390799 -0.296208 -1.29175 -0.0506393 -0.291874 3.19776 10.2243 0.518991 3.50492 17.369 1.23823 -0.0 0.0 -0.0 2.97498 11.4802 6.38682 7.24932 -29.5879 58.8388 4.07514 -63.6291 2.52878 -5.50505 -0.226187 0.666103 -1.14393 -5.5555 -10.1206 -0.0 0.0 -0.0 4.87707 8.10059 -9.04461 -24.1485 24.8654 -62.5487 0.942859 25.0352 -0.209336 -2.23587 0.0841258 -0.273097 1.03397 -23.8896 -15.6005 0.0 0.0 0.0 -11.3414 25.9135 -1.50049 -13.0676 0.313809 1.97652 22.6063 -5.0061 -3.11507 5.12969 -0.0 -0.0 -0.0 0.0 -0.0 28.5469 23.8377 -6.47836 -0.509144 -0.0206296 -0.0754101 -21.3009 -8.64504 -3.20336 -28.9237 0.0 0.0 0.0 0.0 0.0 
1437.68 721.666 -535.438 162.403 -84.584 162.15 -1.28912 -0.0157042 -0.111946 -1.28911 -0.00854895 -0.112719 -1.28909 0.0178485 -0.111624 -1.2891 -4.4525e-06 -0.113042 3.68128 9.48013 0.698037 3.9436 15.8498 1.35213 -0.0 0.0 -0.0 2.81649 12.8083 6.18254 5.53667 -28.9553 59.066 3.81405 -62.0919 2.29641 -6.74912 -0.286114 0.813464 -1.1556 -5.18681 -10.0385 -0.0 0.0 -0.0 4.74326 7.6194 -8.79665 -24.0719 25.239 -63.0653 0.983299 25.9701 -0.226747 -2.0953 0.0785226 -0.256024 1.29175 -24.6546 -17.3731 0.0 0.0 0.0 -12.43 25.5258 -2.20881 -18.2557 0.31232 2.77225 24.9493 -6.73273 -3.41733 7.05901 -0.0 -0.0 -0.0 0.0 -0.0 25.8684 24.1889 -6.01134 -5.411 -0.184664 -0.809589 -19.1468 -7.75694 -2.87789 -27.1254 0.0 0.0 0.0 0.0 0.0 
1460.84 722.445 -525.803 143.92 -85.5525 143.905 -1.32789 -0.0860408 -0.159853 -1.32788 -0.0756946 -0.165004 -1.32764 -0.0352072 -0.178091 -1.32768 -0.0628915 -0.170296 2.41448 8.74923 0.796661 2.61207 14.6563 1.53616 -0.0 0.0 -0.0 1.8582 13.6406 4.64868 4.43388 -30.1012 60.7361 3.68127 -61.2451 2.17954 -7.22419 -0.309842 0.869392 -1.19131 -4.24005 -9.86539 -0.0 0.0 -0.0 4.83771 6.75183 -9.03936 -23.4666 25.105 -64.1005 1.01798 26.7602 -0.24215 -1.70309 0.0631118 -0.208318 1.45508 -25.3556 -18.5522 0.0 0.0 0.0 -13.238 24.5081 -2.51184 -21.131 0.280482 3.21223 23.4262 -7.42172 -3.24537 8.96335 -0.0 -0.0 -0.0 0.0 -0.0 24.4442 24.1935 -6.94747 -8.83509 -0.261702 -1.32932 -17.1383 -6.49606 -2.57491 -26.0015 0.0 0.0 0.0 0.0 0.0 
1488.23 729.407 -522.218 122.562 -84.8964 122.686 -1.58054 0.0533054 -0.159062 -1.58053 0.0633189 -0.155348 -1.5807 0.0983416 -0.135908 -1.58072 0.0756433 -0.149734 1.86399 8.15174 0.50019 2.03431 13.9208 1.21426 -0.0 0.0 -0.0 1.16144 14.6609 3.59576 3.72219 -30.4725 62.3964 3.48629 -59.9129 2.0097 -8.29067 -0.364797 0.994226 -1.10026 -0.708608 -7.68234 -0.0 0.0 -0.0 4.45678 4.60739 -8.38156 -23.5977 25.1044 -64.6822 1.0375 27.2002 -0.251007 -2.15805 0.0810191 -0.263648 1.51328 -26.4088 -19.188 0.0 0.0 0.0 -12.6069 22.5014 -4.89704 -24.681 0.210785 3.75244 16.2099 -4.93623 -2.30364 13.3854 -0.0 -0.0 -0.0 0.0 -0.0 21.9568 24.2294 -7.32523 -11.2345 -0.297113 -1.69577 -14.5208 -4.05127 -2.18299 -26.0223 0.0 0.0 0.0 0.0 0.0 
1506.17 731.538 -508.32 121.017 -83.7567 121.416 -1.72679 0.122184 -0.360341 -1.72673 0.144865 -0.351836 -1.72761 0.224934 -0.306887 -1.7277 0.173645 -0.338559 1.10181 7.71395 0.11141 1.25342 13.553 0.821092 -0.0 0.0 -0.0 0.0801166 15.4033 1.93867 3.00102 -30.6579 63.2967 3.27613 -58.3462 1.82929 -7.043 -0.300738 0.848084 -1.12734 3.51656 -5.98129 -0.0 0.0 -0.0 4.31704 3.8856 -8.13982 -21.2132 25.7065 -64.8007 1.00553 26.4778 -0.236571 -2.51439 0.0953512 -0.306885 1.42231 -29.389 -19.4339 0.0 0.0 0.0 -12.0214 19.2255 -6.75326 -29.666 0.0567143 4.50174 10.8727 -1.34413 -1.56066 17.367 -0.0 -0.0 -0.0 0.0 -0.0 20.8359 25.1728 -9.21037 -12.2055 -0.307076 -1.84442 -12.6725 -1.30867 -1.91133 -27.5117 0.0 0.0 0.0 0.0 0.0 
1515.85 724.022 -505.28 120.48 -83.9295 121.617 -1.75805 -0.0125903 -0.510174 -1.7579 0.0198984 -0.509941 -1.75796 0.141742 -0.490251 -1.75829 0.0625378 -0.506483 -0.105278 7.52396 0.0414108 0.022327 13.3897 0.840332 -0.0 0.0 -0.0 -0.415129 14.9244 1.09069 3.47592 -31.4977 64.329 3.03964 -56.3993 1.63009 -6.09721 -0.254311 0.736404 -1.16783 7.97923 -4.24744 -0.0 0.0 -0.0 4.46684 3.61862 -8.45381 -18.616 26.3393 -64.9551 0.996939 26.2821 -0.232754 -2.58102 0.0980607 -0.314959 1.43287 -29.57 -19.5405 0.0 0.0 0.0 -10.4367 18.0331 -7.79862 -31.6934 -0.0245123 4.80225 7.1005 1.13094 -1.02647 20.2008 -0.0 -0.0 -0.0 0.0 -0.0 20.0355 25.8532 -10.5194 -11.7921 -0.303142 -1.7811 -8.50688 0.631399 -1.28241 -29.4491 0.0 0.0 0.0 0.0 0.0 
1524.81 726.973 -497.338 114.582 -84.055 116.482 -1.83923 -0.0725493 -0.595246 -1.83903 -0.0345259 -0.598656 -1.83848 0.111034 -0.589281 -1.83896 0.0165765 -0.599421 -0.99978 7.3935 -0.00383363 -0.889566 13.2739 0.863516 -0.0 0.0 -0.0 -0.912897 14.7284 0.265059 3.393 -32.012 64.9669 2.86289 -54.8009 1.48424 -5.43499 -0.222908 0.657766 -1.20008 11.1545 -3.02796 -0.0 0.0 -0.0 4.44879 3.56646 -8.42038 -16.8382 26.7209 -64.6581 0.990671 26.1389 -0.229985 -2.62623 0.0999048 -0.320436 1.44189 -29.664 -19.6159 0.0 0.0 0.0 -9.31587 17.1623 -8.56798 -33.0394 -0.0843012 5.00014 4.47651 2.89563 -0.650271 22.1992 -0.0 -0.0 -0.0 0.0 -0.0 19.4654 26.3427 -11.3957 -11.4883 -0.29996 -1.7346 -5.59944 2.01645 -0.843496 -30.8051 0.0 0.0 0.0 0.0 0.0 
